<svg xmlns="http://www.w3.org/2000/svg" width="22.186" height="26.556" viewBox="0 0 22.186 26.556">
  <g id="bell" transform="translate(-43 512.472)">
    <path id="Path_231" data-name="Path 231" d="M53.559-511.858a2.169,2.169,0,0,0-1.49,1.4,4.329,4.329,0,0,0-.115,1.137l-.03.892-.424.165a7.407,7.407,0,0,0-2.5,1.56,7.36,7.36,0,0,0-1.954,3.056c-.339,1.012-.339,1.017-.379,3.808-.04,2.667-.06,2.921-.3,3.788a6.893,6.893,0,0,1-.543,1.361,7.4,7.4,0,0,1-1.48,1.979c-.773.768-.842.9-.842,1.52a1.221,1.221,0,0,0,.115.688,1.707,1.707,0,0,0,.748.743l.284.14,2.876.015,2.881.015.03.135a3.692,3.692,0,0,0,.9,1.8,3.593,3.593,0,0,0,2.527,1.236,3.564,3.564,0,0,0,2.871-1.127,3.5,3.5,0,0,0,1.017-1.909l.03-.135,2.881-.015,2.876-.015.284-.14a1.707,1.707,0,0,0,.748-.743,1.22,1.22,0,0,0,.115-.688c0-.628-.075-.758-.842-1.52a7.452,7.452,0,0,1-2.029-3.35c-.229-.8-.254-1.122-.294-3.779-.04-2.787-.045-2.8-.374-3.793a7.357,7.357,0,0,0-1.959-3.071,7.407,7.407,0,0,0-2.5-1.56l-.424-.165-.03-.892a3.9,3.9,0,0,0-.13-1.171A2.132,2.132,0,0,0,53.559-511.858Zm1.047,1.132a1.313,1.313,0,0,1,.359.329c.15.214.15.224.164.947l.015.733h-2.1v-.663a2.59,2.59,0,0,1,.075-.847A1.046,1.046,0,0,1,54.606-510.727Zm.643,3.16a6.441,6.441,0,0,1,4.9,4.257c.284.862.289.932.329,3.664s.055,2.956.334,3.913a8.624,8.624,0,0,0,2.383,3.868c.474.424.558.613.394.922s.444.294-9.491.294-9.332.02-9.491-.294-.08-.5.394-.922a8.624,8.624,0,0,0,2.383-3.868c.274-.952.294-1.186.334-3.913s.045-2.806.329-3.664a6.539,6.539,0,0,1,2.951-3.559,6.968,6.968,0,0,1,2.413-.778A7.52,7.52,0,0,1,55.249-507.566Zm1.416,18.1a3.235,3.235,0,0,1-.608,1.107,2.552,2.552,0,0,1-1.939.867,2.58,2.58,0,0,1-1.969-.847,3.3,3.3,0,0,1-.628-1.127l-.03-.135h5.2Z" transform="translate(0 0)" fill="#444" stroke="#444" stroke-width="1"/>
  </g>
</svg>
