<svg xmlns="http://www.w3.org/2000/svg" xmlns:xlink="http://www.w3.org/1999/xlink" width="154" height="156" viewBox="0 0 154 156">
  <defs>
    <clipPath id="clip-path">
      <rect id="Rectangle_745" data-name="Rectangle 745" width="154" height="156" rx="10" transform="translate(958 454.375)" fill="#dfdfdf" stroke="#dfdfdf" stroke-width="1"/>
    </clipPath>
  </defs>
  <g id="Mask_Group_1" data-name="Mask Group 1" transform="translate(-958 -454.375)" clip-path="url(#clip-path)">
    <g id="platform" transform="translate(958 455.292)">
      <path id="Path_301" data-name="Path 301" d="M12.477-187.625a14.6,14.6,0,0,0-6.112,3.6,16.1,16.1,0,0,0-2.234,3.444L3.139-178.5v65.492l1.148,2.358a11.923,11.923,0,0,0,6.081,5.926l2.079.993H48.124l2.079-.993a11.923,11.923,0,0,0,6.081-5.926l1.148-2.358.093-15.14.093-15.14h5.088c3.878,0,5.119.093,5.119.372,0,.9,1.924,4.343,3.133,5.646,1.21,1.334,5.057,3.6,6.05,3.6.372,0,.434,2.73.434,16.288V-101.1H68.166l-.993,3.258-.993,3.258-2.2.652A60,60,0,0,0,52.592-89.4l-3.94,1.986-3.04-1.551L42.54-90.519l-8.283,8.252L26-74.014l1.52,3.1,1.551,3.071L27.09-63.9a60,60,0,0,0-4.53,11.386l-.652,2.2-3.258.993-3.258.993v9.276H2.984v4.964h153.88V-39.05h-12.41v-9.307L141.2-49.35l-3.258-.993-.652-2.2a60.569,60.569,0,0,0-4.53-11.355l-1.986-3.94,1.551-3.071,1.52-3.1-8.252-8.252-8.283-8.252-3.071,1.551-3.04,1.551-3.94-1.986a65.842,65.842,0,0,0-11.851-4.716l-1.737-.465-.993-3.258-.993-3.258H82.406v-16.288c0-13.558.062-16.288.434-16.288.993,0,4.84-2.265,6.05-3.6,1.21-1.3,3.133-4.747,3.133-5.646,0-.279,1.241-.372,5.119-.372h5.088l.093,15.14.093,15.14,1.148,2.358a11.923,11.923,0,0,0,6.081,5.926l2.079.993h35.709l2.358-1.179a11.931,11.931,0,0,0,5.957-6.112l.962-2.017V-178.5l-.962-2.017a11.931,11.931,0,0,0-5.957-6.112l-2.358-1.179h-35.74l-2.358,1.148a11.923,11.923,0,0,0-5.926,6.081l-.993,2.079-.093,15.109-.093,15.14H97.142c-4.126,0-5.119-.093-5.119-.434a14.025,14.025,0,0,0-1.086-2.575,11.929,11.929,0,0,0-5.988-5.771c-1.892-.9-2.358-.993-5.026-.993s-3.133.093-5.026.993a11.929,11.929,0,0,0-5.988,5.771,14.025,14.025,0,0,0-1.086,2.575c0,.341-.993.434-5.119.434H57.618l-.093-15.14-.093-15.14-1.148-2.358a11.923,11.923,0,0,0-6.081-5.926l-2.079-.993-17.218-.062C21.133-187.9,13.16-187.78,12.477-187.625Zm5.429,9.835.124,5.212,1.117,2.234,1.086,2.234H7.948v-4.219c0-5.274.279-6.329,2.327-8.346,1.768-1.8,2.916-2.265,5.615-2.3L17.813-183Zm19.824-.993a29.509,29.509,0,0,1-.372,5.522,9.214,9.214,0,0,1-4.778,4.778,6.8,6.8,0,0,1-7.415-1.955c-2.048-2.017-2.327-3.071-2.327-8.346V-183H37.731Zm9.742-3.847a9.214,9.214,0,0,1,4.778,4.778,29.509,29.509,0,0,1,.372,5.522v4.219H40.337l1.086-2.234,1.117-2.234.124-5.212L42.757-183h1.706A12.469,12.469,0,0,1,47.473-182.63Zm69.711,4.84.124,5.212,1.117,2.234,1.086,2.234H107.225v-4.281c0-5.367.372-6.639,2.482-8.532a6.852,6.852,0,0,1,5.46-2.048l1.924-.031Zm19.824-.807c0,4-.093,4.592-.745,6.019a7.686,7.686,0,0,1-6.7,4.467,6.788,6.788,0,0,1-5.119-2.327c-2.048-2.017-2.327-3.071-2.327-8.346V-183h14.892Zm9.649-4.033a8.138,8.138,0,0,1,4.5,4.1c.652,1.427.745,2.017.745,5.988v4.436H139.459l.807-1.4c1.334-2.234,1.706-4.219,1.706-9.09V-183h1.737A11.557,11.557,0,0,1,146.657-182.63ZM52.623-145.773V-128.4H7.948v-34.747H52.623Zm99.278,0V-128.4H107.225v-34.747H151.9Zm-69.68-7.074a8.22,8.22,0,0,1,5.15,7.074,7.814,7.814,0,0,1-7.446,7.446,7.814,7.814,0,0,1-7.446-7.446,6.788,6.788,0,0,1,2.327-5.119A6.849,6.849,0,0,1,82.22-152.847Zm-29.6,33.63a29.509,29.509,0,0,1-.372,5.522,9.214,9.214,0,0,1-4.778,4.778c-1.83.527-32.544.527-34.375,0a9.214,9.214,0,0,1-4.778-4.778,29.509,29.509,0,0,1-.372-5.522v-4.219H52.623Zm99.278.186c0,4-.093,4.592-.745,6.019a8.138,8.138,0,0,1-4.5,4.1c-1.737.527-32.513.527-34.282,0a9.214,9.214,0,0,1-4.778-4.778,29.508,29.508,0,0,1-.372-5.522v-4.219H151.9ZM88.952-93.156l.9,2.854,2.854.683A58.258,58.258,0,0,1,109.149-82.7l1.737,1.148,2.7-1.458,2.7-1.427,5.739,5.771,5.771,5.739-1.458,2.7-1.427,2.73,1.21,1.892a56.952,56.952,0,0,1,6.856,16.257l.683,2.854,2.854.9,2.823.869.093,2.854.093,2.823-7.539-.062-7.539-.093-.217-2.327a45.031,45.031,0,0,0-16.164-29.659A44.513,44.513,0,0,0,41.082-58.44a46.163,46.163,0,0,0-5.429,16.753L35.4-39.2l-7.539.093-7.539.062.093-2.823.093-2.823,2.823-.9,2.854-.9.683-2.885a59.1,59.1,0,0,1,6.949-16.443L34.908-67.5l-1.427-2.73-1.4-2.73,5.739-5.708,5.708-5.739,2.761,1.427,2.761,1.427,1.582-1.055a58.772,58.772,0,0,1,16.474-7.011L70-90.3l.776-2.544c.434-1.365.869-2.7.931-2.916.124-.31,1.924-.372,8.252-.31l8.128.093ZM88.3-75.379a39.848,39.848,0,0,1,30.962,34.1l.248,2.234-4.964-.062-4.964-.093-.372-2.2A29.933,29.933,0,0,0,90.751-64.3c-3.816-1.489-5.988-1.861-10.827-1.861a26.255,26.255,0,0,0-15.295,4.126C57.307-57.726,51.537-49.133,50.513-41L50.3-39.2l-4.995.093-4.964.062.217-2.079A39.862,39.862,0,0,1,48.869-61.2,44.081,44.081,0,0,1,62.519-72.246a47.023,47.023,0,0,1,10.424-3.382c1.21-.186,2.513-.4,2.947-.465C77.752-76.434,85.788-75.969,88.3-75.379ZM85.819-60.674a24.272,24.272,0,0,1,7.539,3.32,25.1,25.1,0,0,1,10.921,16.195l.4,2.11H55.167l.4-2.11a24.886,24.886,0,0,1,19.7-19.793A31.67,31.67,0,0,1,85.819-60.674Z" transform="translate(-2.984 187.878)"/>
      <path id="Path_302" data-name="Path 302" d="M33.607-175.273a2.449,2.449,0,0,0,1.706,4.188,2.62,2.62,0,0,0,2.482-2.482,2.62,2.62,0,0,0-2.482-2.482A2.418,2.418,0,0,0,33.607-175.273Z" transform="translate(-8.012 185.888)"/>
      <path id="Path_303" data-name="Path 303" d="M152.953-175.273a2.418,2.418,0,0,0-.776,1.706,2.418,2.418,0,0,0,.776,1.706,2.418,2.418,0,0,0,1.706.776,2.418,2.418,0,0,0,1.706-.776,2.418,2.418,0,0,0,.776-1.706,2.418,2.418,0,0,0-.776-1.706,2.418,2.418,0,0,0-1.706-.776A2.418,2.418,0,0,0,152.953-175.273Z" transform="translate(-28.081 185.888)"/>
      <path id="Path_304" data-name="Path 304" d="M36.452-142.656,25.035-131.24l-2.73-2.73a19.318,19.318,0,0,0-3.04-2.7,12.393,12.393,0,0,0-3.227,3.258,50.539,50.539,0,0,0,4.5,4.809l4.5,4.5,13.185-13.185c7.26-7.26,13.185-13.34,13.185-13.5a12.51,12.51,0,0,0-3.258-3.258C47.962-154.042,42.719-148.923,36.452-142.656Z" transform="translate(-5.18 182.186)"/>
      <path id="Path_305" data-name="Path 305" d="M155.807-142.656,144.39-131.24l-2.73-2.73a19.317,19.317,0,0,0-3.04-2.7,12.393,12.393,0,0,0-3.227,3.258,50.54,50.54,0,0,0,4.5,4.809l4.5,4.5,13.247-13.247,13.278-13.278-1.706-1.706a15.3,15.3,0,0,0-1.861-1.706C167.255-154.042,162.074-148.923,155.807-142.656Z" transform="translate(-25.257 182.186)"/>
      <path id="Path_306" data-name="Path 306" d="M14.919-101.954v2.482h4.964v-4.964H14.919Z" transform="translate(-4.992 173.841)"/>
      <path id="Path_307" data-name="Path 307" d="M26.855-101.954v2.482H41.746v-4.964H26.855Z" transform="translate(-6.999 173.841)"/>
      <path id="Path_308" data-name="Path 308" d="M50.726-101.954v2.482H55.69v-4.964H50.726Z" transform="translate(-11.015 173.841)"/>
      <path id="Path_309" data-name="Path 309" d="M134.274-101.954v2.482h4.964v-4.964h-4.964Z" transform="translate(-25.069 173.841)"/>
      <path id="Path_310" data-name="Path 310" d="M146.21-101.954v2.482H161.1v-4.964H146.21Z" transform="translate(-27.077 173.841)"/>
      <path id="Path_311" data-name="Path 311" d="M170.081-101.954v2.482h4.964v-4.964h-4.964Z" transform="translate(-31.092 173.841)"/>
      <path id="Path_312" data-name="Path 312" d="M74.6-18.405v2.482h4.964v-4.964H74.6Z" transform="translate(-15.03 159.787)"/>
      <path id="Path_313" data-name="Path 313" d="M86.532-18.405v2.482H91.5v-4.964H86.532Z" transform="translate(-17.038 159.787)"/>
      <path id="Path_314" data-name="Path 314" d="M98.468-18.405v2.482h4.964v-4.964H98.468Z" transform="translate(-19.046 159.787)"/>
      <path id="Path_315" data-name="Path 315" d="M110.4-18.405v2.482h4.964v-4.964H110.4Z" transform="translate(-21.053 159.787)"/>
    </g>
  </g>
</svg>
