<svg xmlns="http://www.w3.org/2000/svg" width="38.356" height="31.016" viewBox="0 0 38.356 31.016">
  <path id="Icon_awesome-code" data-name="Icon awesome-code" d="M16.06,29.454l-3.513-1.019a.692.692,0,0,1-.472-.858L19.935.5a.692.692,0,0,1,.858-.472l3.513,1.019a.692.692,0,0,1,.472.858l-7.86,27.076a.69.69,0,0,1-.858.472ZM9.5,22.994,12,20.322a.691.691,0,0,0-.046-.99L6.737,14.742l5.217-4.589A.686.686,0,0,0,12,9.162L9.5,6.49a.692.692,0,0,0-.979-.029l-8.3,7.774a.686.686,0,0,0,0,1.008l8.3,7.78a.687.687,0,0,0,.979-.029Zm18.841.035,8.3-7.78a.686.686,0,0,0,0-1.008l-8.3-7.785a.7.7,0,0,0-.979.029l-2.5,2.672a.691.691,0,0,0,.046.99l5.217,4.6L24.9,19.331a.686.686,0,0,0-.046.99l2.5,2.672a.692.692,0,0,0,.979.035Z" transform="translate(0.752 0.78)" fill="none" stroke="#444" stroke-width="1.5"/>
</svg>
