<svg xmlns="http://www.w3.org/2000/svg" width="30.032" height="28.732" viewBox="0 0 30.032 28.732">
  <g id="company" transform="translate(0.25 500.552)">
    <path id="Path_36" data-name="Path 36" d="M7.787-500.277a1.332,1.332,0,0,0-1.044.779c-.092.2-.11.4-.11,1.684v1.448l-.992.329a12.3,12.3,0,0,0-1.234.467,2.189,2.189,0,0,0-.8.882l-.121.265-.017,7.741-.012,7.746H3.27a3.633,3.633,0,0,0-1.309.387,3.809,3.809,0,0,0-1.58,1.586A4.922,4.922,0,0,0,0-474.349c0,1.229.017,1.413.11,1.621a1.08,1.08,0,0,0,.756.594c.363.087,27.438.087,27.8,0a1.08,1.08,0,0,0,.756-.594c.1-.213.11-.4.11-1.967,0-1.886-.023-2.094-.335-2.728a3.235,3.235,0,0,0-1.142-1.177,3,3,0,0,0-1.419-.335h-.45v-3.651c0-3.957,0-3.974-.317-4.384a1.52,1.52,0,0,0-.45-.358l-.294-.144H17.246v-10.815l.508.5c.277.271,1.032,1.009,1.684,1.632a16.471,16.471,0,0,1,1.281,1.321c.092.167.1.461.1,3.028v2.844l.144.138a.4.4,0,0,0,.6.012l.127-.138-.017-2.965-.017-2.965L21.5-495.2a14.684,14.684,0,0,0-2.273-2.365c-1.159-1.125-2.186-2.082-2.273-2.128-.156-.075-.375-.011-3.859,1.159L9.4-497.3v-.871a4.823,4.823,0,0,0-.087-1.159A1.332,1.332,0,0,0,7.787-500.277Zm.433.9a.474.474,0,0,1,.254.265,6.851,6.851,0,0,1,.063,1.148V-497l-.519.173-.519.179v-1.229c0-1.148.006-1.24.115-1.379a.491.491,0,0,1,.248-.173.718.718,0,0,0,.144-.035A1.159,1.159,0,0,1,8.219-499.377Zm8.162,1.834v1.177l-2.434.813c-5.335,1.782-7.164,2.417-7.239,2.521a.418.418,0,0,0,.323.658c.092,0,2.215-.686,4.718-1.529s4.563-1.528,4.591-1.528a7.291,7.291,0,0,1,.04,1.09v1.09l-2.78.929c-5.226,1.742-6.812,2.3-6.893,2.405a.418.418,0,0,0,.323.658c.092,0,2.215-.686,4.724-1.529s4.574-1.529,4.591-1.529a9.074,9.074,0,0,1,.035,1.09v1.09l-3.04,1.015c-5.174,1.725-6.552,2.209-6.633,2.319a.418.418,0,0,0,.323.657c.092,0,2.215-.686,4.724-1.528s4.568-1.529,4.586-1.529a7.245,7.245,0,0,1,.04,1.084v1.09l-4.77,1.6c-3.317,1.113-4.8,1.638-4.874,1.719a.415.415,0,0,0,.3.681c.087,0,2.209-.687,4.712-1.529s4.568-1.528,4.591-1.528a6.976,6.976,0,0,1,.04,1.067c0,.975-.012,1.067-.11,1.119-.058.035-1.384.49-2.953,1.015s-2.9.992-2.971,1.038a.386.386,0,0,0-.11.531c.208.317.138.335,3.2-.7,1.563-.525,2.861-.957,2.89-.957s.046,2.111.04,5l-.017,5.007-1.857.017-1.863.012v-2.29c0-1.327-.023-2.382-.058-2.5a1,1,0,0,0-1.032-.652c-.606.138-4.239,1.177-4.366,1.246a1.047,1.047,0,0,0-.26.19c-.248.283-.254.34-.283,2.186L6.6-472.965H4.355l-.017-10.584-.012-10.59.127-.254a1.3,1.3,0,0,1,.283-.363c.087-.063,2.278-.825,4.874-1.7s5.168-1.736,5.7-1.921,1-.34,1.027-.34A8.318,8.318,0,0,1,16.381-497.543Zm8.79,11.115.15.179v7.516l-.294.173a2.978,2.978,0,0,0-1.436,2.578v.335H17.246v-10.959h7.775ZM3.461-476.859v1.211H.865l.035-.161a2.836,2.836,0,0,1,.836-1.534,2.639,2.639,0,0,1,1.569-.721l.156-.006Zm24.1-1.021a1.96,1.96,0,0,1,1.1,1.753l.029.479H24.439l.035-.456a2.114,2.114,0,0,1,.548-1.35,1.854,1.854,0,0,1,1.655-.6A1.692,1.692,0,0,1,27.56-477.879Zm-15.8,2.671-.017,2.244H10.065l-.017-2.053-.012-2.048.819-.236a4.872,4.872,0,0,1,.871-.2C11.749-477.476,11.761-476.449,11.755-475.209Zm-2.584.34v1.932H7.5l.012-1.713.017-1.719.75-.213c.415-.115.784-.213.825-.213A7.647,7.647,0,0,1,9.171-474.869Zm-5.71,1.009v.923H2.313a8.558,8.558,0,0,1-1.3-.058l-.15-.058v-1.73h2.6Zm20.13,0v.923H17.246v-1.846h6.345Zm5.076-.1a4.531,4.531,0,0,1-.058.911c-.046.075-.34.086-2.088.086H24.485l-.017-.911-.017-.906h4.216Z" transform="translate(0)" fill="#444" stroke="#444" stroke-width="0.5"/>
    <path id="Path_37" data-name="Path 37" d="M116.121-170.6a3.533,3.533,0,0,0-.963.41.423.423,0,0,0,.311.663,9.83,9.83,0,0,0,1.978-.675.539.539,0,0,0,.075-.288.4.4,0,0,0-.392-.415A9.13,9.13,0,0,0,116.121-170.6Z" transform="translate(-108.443 -310.386)" fill="#444" stroke="#444" stroke-width="0.5"/>
    <path id="Path_38" data-name="Path 38" d="M319.34-244.867c-.3.2-.34.334-.34,1.125s.052.952.346,1.13a9.291,9.291,0,0,0,2.5.092h2.33l.2-.133c.283-.19.352-.456.329-1.194-.029-.7-.11-.917-.415-1.061a9.667,9.667,0,0,0-2.474-.092C319.536-245,319.536-245,319.34-244.867Zm4.5,1.107v.375h-3.98v-.75h3.98Z" transform="translate(-300.6 -240.568)" fill="#444" stroke="#444" stroke-width="0.5"/>
    <path id="Path_39" data-name="Path 39" d="M319.313-187.867a.974.974,0,0,0-.265.271,4.6,4.6,0,0,0,.012,1.73c.179.346.2.346,2.792.346h2.359l.179-.15c.236-.2.311-.508.283-1.206-.029-.669-.115-.888-.415-1.033a9.672,9.672,0,0,0-2.474-.092C319.509-188,319.509-188,319.313-187.867Zm4.5,1.107v.375h-3.98v-.75h3.98Z" transform="translate(-300.573 -294.28)" fill="#444" stroke="#444" stroke-width="0.5"/>
    <path id="Path_40" data-name="Path 40" d="M319.34-129.9c-.288.179-.34.346-.34,1.125,0,.8.04.923.346,1.131.2.127.237.133,1.142.115l.946-.017.2-.213.2-.219v-.75c0-1.217-.058-1.269-1.425-1.269C319.663-130,319.461-129.977,319.34-129.9Zm1.621,1.142v.375h-1.1v-.75h1.1Z" transform="translate(-300.6 -348.935)" fill="#444" stroke="#444" stroke-width="0.5"/>
  </g>
</svg>
