<svg xmlns="http://www.w3.org/2000/svg" width="17.216" height="22.608" viewBox="0 0 17.216 22.608">
  <g id="document" transform="translate(-61.5 512)">
    <path id="Path_316" data-name="Path 316" d="M63.445-511.956a2.476,2.476,0,0,0-1.843,1.627l-.1.3v18.7l.1.292a2.486,2.486,0,0,0,1.547,1.551l.3.1h13.3l.3-.1a2.518,2.518,0,0,0,1.547-1.538l.1-.261.013-7.037.009-7.037-2.86-.013-2.864-.013-.243-.115a1.493,1.493,0,0,1-.76-.738l-.146-.3-.013-2.727L71.816-512l-4.1,0C65.465-511.991,63.542-511.973,63.445-511.956Zm11.691,8.884a.7.7,0,0,1,.354.575.7.7,0,0,1-.354.575c-.172.088-.248.088-5.176.088h-5l-.177-.1a.639.639,0,0,1-.009-1.123l.172-.106h5.008C74.888-503.16,74.963-503.16,75.136-503.072Zm0,3.536a.7.7,0,0,1,.354.575.7.7,0,0,1-.354.575c-.172.088-.248.088-5.176.088h-5l-.177-.1a.639.639,0,0,1-.009-1.123l.172-.106h5.008C74.888-499.624,74.963-499.624,75.136-499.536Zm-6.471,3.562a.608.608,0,0,1,.3.548.608.608,0,0,1-.3.548c-.115.088-.181.093-1.909.106l-1.79.013-.181-.1a.639.639,0,0,1-.009-1.123l.172-.106,1.8.009C68.484-496.066,68.545-496.062,68.665-495.973Z"/>
    <path id="Path_317" data-name="Path 317" d="M325-502.573a10.528,10.528,0,0,0,.071,2.5,11.54,11.54,0,0,0,2.63.071h2.564l-.053-.1a17.976,17.976,0,0,0-2.5-2.493,19.687,19.687,0,0,0-2.674-2.4C325.018-505,325-503.908,325-502.573Z" transform="translate(-251.853 -6.691)"/>
  </g>
</svg>
