<svg xmlns="http://www.w3.org/2000/svg" width="24.14" height="24.152" viewBox="0 0 24.14 24.152">
  <g id="dashboard" transform="translate(-48 464.216)">
    <path id="Path_251" data-name="Path 251" d="M50.178-463.67a2.624,2.624,0,0,0-1.1.647,2.89,2.89,0,0,0-.4.619l-.178.374v7.3l.178.374a2.143,2.143,0,0,0,1.065,1.093l.424.206h7.316l.424-.206a2.143,2.143,0,0,0,1.065-1.093l.178-.374v-7.31l-.206-.424a2.143,2.143,0,0,0-1.093-1.065l-.374-.178-3.541-.011C51.912-463.72,50.3-463.7,50.178-463.67Zm7.182.9a1.656,1.656,0,0,1,.859.859c.095.329.095,6.741,0,7.07a1.656,1.656,0,0,1-.859.859,34.5,34.5,0,0,1-3.535.067,34.5,34.5,0,0,1-3.535-.067,1.656,1.656,0,0,1-.859-.859c-.095-.329-.095-6.741,0-7.07a1.778,1.778,0,0,1,.825-.853C50.546-462.856,57.053-462.862,57.36-462.772Z" transform="translate(0 0)" fill="#444" stroke="#444" stroke-width="1"/>
    <path id="Path_252" data-name="Path 252" d="M274.178-463.67a2.625,2.625,0,0,0-1.1.647,2.89,2.89,0,0,0-.4.619l-.178.374v7.3l.178.374a2.143,2.143,0,0,0,1.065,1.093l.424.206h7.316l.424-.206a2.143,2.143,0,0,0,1.065-1.093l.178-.374v-7.31l-.206-.424a2.143,2.143,0,0,0-1.093-1.065l-.374-.178-3.541-.011C275.912-463.72,274.3-463.7,274.178-463.67Zm7.182.9a1.656,1.656,0,0,1,.859.859c.095.329.095,6.741,0,7.07a1.656,1.656,0,0,1-.859.859c-.329.095-6.741.095-7.07,0a1.656,1.656,0,0,1-.859-.859c-.095-.329-.095-6.741,0-7.07a1.778,1.778,0,0,1,.825-.853C274.546-462.856,281.053-462.862,281.36-462.772Z" transform="translate(-211.51 0)" fill="#444" stroke="#444" stroke-width="1"/>
    <path id="Path_253" data-name="Path 253" d="M50.178-239.67a2.625,2.625,0,0,0-1.1.647,2.894,2.894,0,0,0-.4.619l-.178.374v7.3l.178.374a2.143,2.143,0,0,0,1.065,1.093l.424.206h7.316l.424-.206a2.143,2.143,0,0,0,1.065-1.093l.178-.374v-7.31l-.206-.424a2.143,2.143,0,0,0-1.093-1.065l-.374-.178-3.541-.011C51.912-239.72,50.3-239.7,50.178-239.67Zm7.182.9a1.656,1.656,0,0,1,.859.859c.095.329.095,6.741,0,7.07a1.656,1.656,0,0,1-.859.859c-.329.095-6.741.095-7.07,0a1.656,1.656,0,0,1-.859-.859c-.095-.329-.095-6.741,0-7.07a1.778,1.778,0,0,1,.825-.853C50.546-238.856,57.053-238.862,57.36-238.772Z" transform="translate(0 -211.51)" fill="#444" stroke="#444" stroke-width="1"/>
    <path id="Path_254" data-name="Path 254" d="M277.12-239.826a6,6,0,0,0-2.264.9,6.716,6.716,0,0,0-1.517,1.634,4.722,4.722,0,0,0-.742,2.76,4.43,4.43,0,0,0,.362,2,5.526,5.526,0,0,0,2.838,2.911,4.66,4.66,0,0,0,2.119.407,4.763,4.763,0,0,0,2.76-.742,6.141,6.141,0,0,0,1.818-1.818,4.772,4.772,0,0,0,.742-2.76,4.78,4.78,0,0,0-.742-2.76,6.237,6.237,0,0,0-1.784-1.8A5.46,5.46,0,0,0,277.12-239.826Zm1.857.959a4.361,4.361,0,0,1,1.355.6,4.448,4.448,0,0,1,.73,6.881,4.448,4.448,0,0,1-6.881-.73,4.435,4.435,0,0,1,.335-5.286,4.5,4.5,0,0,1,2.565-1.511A5.691,5.691,0,0,1,278.977-238.867Z" transform="translate(-211.602 -211.354)" fill="#444" stroke="#444" stroke-width="1"/>
  </g>
</svg>
