<svg xmlns="http://www.w3.org/2000/svg" width="35.06" height="40.069" viewBox="0 0 35.06 40.069">
  <path id="Icon_awesome-calendar-alt" data-name="Icon awesome-calendar-alt" d="M0,36.312a3.757,3.757,0,0,0,3.756,3.756H31.3a3.757,3.757,0,0,0,3.756-3.756V15.026H0ZM25.043,20.973a.942.942,0,0,1,.939-.939h3.13a.942.942,0,0,1,.939.939V24.1a.942.942,0,0,1-.939.939h-3.13a.942.942,0,0,1-.939-.939Zm0,10.017a.942.942,0,0,1,.939-.939h3.13a.942.942,0,0,1,.939.939v3.13a.942.942,0,0,1-.939.939h-3.13a.942.942,0,0,1-.939-.939ZM15.026,20.973a.942.942,0,0,1,.939-.939H19.1a.942.942,0,0,1,.939.939V24.1a.942.942,0,0,1-.939.939h-3.13a.942.942,0,0,1-.939-.939Zm0,10.017a.942.942,0,0,1,.939-.939H19.1a.942.942,0,0,1,.939.939v3.13a.942.942,0,0,1-.939.939h-3.13a.942.942,0,0,1-.939-.939ZM5.009,20.973a.942.942,0,0,1,.939-.939h3.13a.942.942,0,0,1,.939.939V24.1a.942.942,0,0,1-.939.939H5.948a.942.942,0,0,1-.939-.939Zm0,10.017a.942.942,0,0,1,.939-.939h3.13a.942.942,0,0,1,.939.939v3.13a.942.942,0,0,1-.939.939H5.948a.942.942,0,0,1-.939-.939ZM31.3,5.009H27.547V1.252A1.256,1.256,0,0,0,26.3,0h-2.5a1.256,1.256,0,0,0-1.252,1.252V5.009H12.521V1.252A1.256,1.256,0,0,0,11.269,0h-2.5A1.256,1.256,0,0,0,7.513,1.252V5.009H3.756A3.757,3.757,0,0,0,0,8.765v3.756H35.06V8.765A3.757,3.757,0,0,0,31.3,5.009Z" fill="#444"/>
</svg>
