<svg xmlns="http://www.w3.org/2000/svg" width="34" height="27.2" viewBox="0 0 34 27.2">
  <path id="Icon_awesome-eye-slash" data-name="Icon awesome-eye-slash" d="M17,21.25a7.621,7.621,0,0,1-7.592-7.071L3.836,9.872a17.706,17.706,0,0,0-1.951,2.953,1.719,1.719,0,0,0,0,1.551A17.039,17.039,0,0,0,17,23.8a16.5,16.5,0,0,0,4.138-.556l-2.757-2.133A7.657,7.657,0,0,1,17,21.25Zm16.672,3.087L27.8,19.8a17.6,17.6,0,0,0,4.316-5.422,1.719,1.719,0,0,0,0-1.551A17.039,17.039,0,0,0,17,3.4a16.37,16.37,0,0,0-7.826,2L2.415.179A.85.85,0,0,0,1.222.328L.179,1.671A.85.85,0,0,0,.328,2.863L31.585,27.021a.85.85,0,0,0,1.193-.149l1.043-1.342a.85.85,0,0,0-.15-1.193Zm-9.76-7.544-2.088-1.614A5.034,5.034,0,0,0,15.655,8.7a2.531,2.531,0,0,1,.495,1.5,2.478,2.478,0,0,1-.082.531L12.158,7.709A7.56,7.56,0,0,1,17,5.95a7.646,7.646,0,0,1,7.65,7.65,7.469,7.469,0,0,1-.738,3.193Z" transform="translate(0 0)" fill="#444"/>
</svg>
