<svg xmlns="http://www.w3.org/2000/svg" width="30.748" height="20.499" viewBox="0 0 30.748 20.499">
  <path id="Icon_awesome-eye" data-name="Icon awesome-eye" d="M30.562,13.97A17.122,17.122,0,0,0,15.374,4.5,17.124,17.124,0,0,0,.186,13.97a1.727,1.727,0,0,0,0,1.558A17.122,17.122,0,0,0,15.374,25a17.124,17.124,0,0,0,15.188-9.47A1.727,1.727,0,0,0,30.562,13.97ZM15.374,22.436a7.687,7.687,0,1,1,7.687-7.687A7.687,7.687,0,0,1,15.374,22.436Zm0-12.812a5.088,5.088,0,0,0-1.351.2A2.554,2.554,0,0,1,10.452,13.4a5.113,5.113,0,1,0,4.922-3.774Z" transform="translate(0 -4.5)" fill="#444"/>
</svg>
