<svg xmlns="http://www.w3.org/2000/svg" width="28.825" height="33.135" viewBox="0 0 28.825 33.135">
  <g id="feedback" transform="translate(-33.751 512.134)">
    <path id="Path_318" data-name="Path 318" d="M191.469-511.658a28.792,28.792,0,0,0-3.187,2,1.229,1.229,0,0,0-.095,1.037c.152.291.3.4,1.878,1.347,1.385.835,1.5.892,1.8.892a1.112,1.112,0,0,0,.86-.4,2.019,2.019,0,0,0,.247-1.2v-.531l.556.051a12.915,12.915,0,0,1,11.141,8.764,12.9,12.9,0,0,1-2.94,13.089,12.668,12.668,0,0,1-3.206,2.441c-.639.348-.708.417-.708.715a.553.553,0,0,0,.512.525,10.057,10.057,0,0,0,2.738-1.606,16.98,16.98,0,0,0,2.137-2.093,14.153,14.153,0,0,0,3.168-10.25,14.006,14.006,0,0,0-4.237-8.783,13.776,13.776,0,0,0-5.21-3.187,13.232,13.232,0,0,0-3.484-.7,1.082,1.082,0,0,1-.379-.051,1.955,1.955,0,0,1-.1-.708c-.032-.753-.114-.974-.462-1.239A1.094,1.094,0,0,0,191.469-511.658Zm.386,1.562a17.129,17.129,0,0,1-.006,2.63,27.139,27.139,0,0,1-2.605-1.593c.063-.063,2.479-1.543,2.536-1.549A1.743,1.743,0,0,1,191.855-510.1Z" transform="translate(-144.247)" stroke="#000" stroke-width="0.75"/>
    <path id="Path_319" data-name="Path 319" d="M41.531-455.715a14.2,14.2,0,0,0-4.173,3.414,14.154,14.154,0,0,0-3.219,9.422,13.906,13.906,0,0,0,3.914,9.232,13.461,13.461,0,0,0,3.939,2.877,13.972,13.972,0,0,0,4.78,1.359c.873.063.8-.006.828.771s.114.993.462,1.258a1.026,1.026,0,0,0,1.005.126,27.028,27.028,0,0,0,3.212-2.011,1.229,1.229,0,0,0,.095-1.037c-.152-.291-.31-.4-1.872-1.347-1.391-.835-1.5-.892-1.8-.892a1.116,1.116,0,0,0-.866.4,2.277,2.277,0,0,0-.247,1.233v.493l-.582-.051a12.948,12.948,0,0,1-11.4-9.738,12.93,12.93,0,0,1,3.136-12.027,13.373,13.373,0,0,1,3.294-2.529c.639-.348.708-.417.708-.714a.549.549,0,0,0-.518-.525A2.473,2.473,0,0,0,41.531-455.715Zm8.543,25.04a6.591,6.591,0,0,1,1.246.816c-.032.032-.62.4-1.309.835l-1.252.771-.038-.449a19.156,19.156,0,0,1,0-2.751C48.752-431.447,49.359-431.093,50.074-430.676Z" transform="translate(0 -52.212)" stroke="#000" stroke-width="0.75"/>
    <path id="Path_320" data-name="Path 320" d="M112.948-383.676a2.253,2.253,0,0,0-1.334,1.265c-.107.278-.114.639-.114,5.672v5.375l.177.36a2.256,2.256,0,0,0,1.29,1.126,4.17,4.17,0,0,0,1.353.126h.942v.911c0,.955.044,1.17.272,1.416a1.141,1.141,0,0,0,1.284.247c.1-.051.835-.651,1.625-1.334l1.448-1.239h4c3.838,0,4.022-.006,4.414-.126A2.256,2.256,0,0,0,129.6-371l.177-.36v-10.813l-.164-.348a2.309,2.309,0,0,0-1.056-1.056l-.36-.177-7.461-.013C113.745-383.784,113.252-383.777,112.948-383.676Zm15.068,1.031a1.244,1.244,0,0,1,.626.607,43.826,43.826,0,0,1,.089,5.261c0,3.427-.019,5.115-.07,5.236a1.162,1.162,0,0,1-.531.575c-.171.095-.639.114-4.363.139-3.826.032-4.192.038-4.376.145-.114.057-.847.651-1.631,1.309l-1.423,1.2v-.847c0-.911-.057-1.176-.31-1.454-.285-.31-.474-.354-1.568-.354a2.883,2.883,0,0,1-1.252-.12,1.093,1.093,0,0,1-.594-.594c-.095-.247-.095-10.212,0-10.459a1.326,1.326,0,0,1,.594-.626c.152-.07,1.518-.082,7.411-.089C125.569-382.715,127.9-382.7,128.016-382.645Z" transform="translate(-72.479 -119.869)" stroke="#000" stroke-width="0.75"/>
    <path id="Path_321" data-name="Path 321" d="M162.546-332.965a.515.515,0,0,0-.114.866c.139.126.2.126,5.741.126s5.6,0,5.741-.126a.515.515,0,0,0-.114-.866C173.573-333.078,162.773-333.078,162.546-332.965Z" transform="translate(-120.015 -167.387)" stroke="#000" stroke-width="0.75"/>
    <path id="Path_322" data-name="Path 322" d="M162.28-289.8a.447.447,0,0,0,.019.7l.183.183h11.154l.183-.183a.438.438,0,0,0,0-.708l-.183-.183H162.444Z" transform="translate(-119.901 -207.715)" stroke="#000" stroke-width="0.75"/>
    <path id="Path_323" data-name="Path 323" d="M162.554-246.905a.548.548,0,0,0-.145.626c.133.354.209.36,3.579.341l3.073-.019.152-.177a.494.494,0,0,0-.006-.708l-.152-.158h-3.181C163.142-247,162.668-246.987,162.554-246.905Z" transform="translate(-120.131 -247.996)" stroke="#000" stroke-width="0.75"/>
  </g>
</svg>
