<svg xmlns="http://www.w3.org/2000/svg" width="25.425" height="25.736" viewBox="0 0 25.425 25.736">
  <g id="jobs" transform="translate(-30.325 485.024)">
    <path id="Path_264" data-name="Path 264" d="M34.443-484.8c-.178.1-.194.156-.194.75v.561l-1.15.022c-1.133.017-1.161.022-1.472.172a2.194,2.194,0,0,0-.972.972l-.156.317v21.048l.15.317a2.139,2.139,0,0,0,1.005,1.022l.344.161H47.938l.317-.15a2.106,2.106,0,0,0,1.005-.983l.178-.367.028-1.949.028-1.955,2.721-1.788c1.749-1.144,2.793-1.866,2.932-2.016a1.738,1.738,0,0,0-.6-2.716,1.886,1.886,0,0,0-1.361-.011c-.139.067-1.016.622-1.955,1.233s-1.716,1.122-1.733,1.122-.039-2.916-.044-6.481l-.017-6.486-.122-.261a2.625,2.625,0,0,0-.8-.911c-.405-.255-.705-.3-1.977-.3H45.356v-.572c0-.605-.017-.655-.205-.755a.227.227,0,0,0-.25,0c-.194.1-.211.15-.211.755v.572H41.857v-.572c0-.605-.017-.655-.205-.755a.227.227,0,0,0-.25,0c-.194.1-.211.15-.211.755v.572H38.414v-.572c0-.605-.017-.655-.205-.755a.227.227,0,0,0-.25,0c-.194.1-.211.15-.211.755v.572H34.915v-.572c0-.605-.017-.655-.205-.755C34.565-484.882,34.582-484.882,34.443-484.8Zm-.194,2.4c0,.378-.011.411-.122.444a1.31,1.31,0,0,0-.661.622,1.229,1.229,0,0,0,.766,1.722,1.236,1.236,0,0,0,1.288-2,1.326,1.326,0,0,0-.411-.322L34.915-482v-.811h2.832v.411c0,.394-.006.411-.144.444a1.369,1.369,0,0,0-.383.261,1.219,1.219,0,0,0,.178,1.938,1.25,1.25,0,0,0,1.816-.539,1.42,1.42,0,0,0-.028-1.055,1.315,1.315,0,0,0-.644-.605c-.117-.033-.128-.067-.128-.444v-.411h2.777v.4l-.006.405-.233.117a1.251,1.251,0,0,0-.461,1.777,1.245,1.245,0,0,0,2.233-.344.967.967,0,0,0,.028-.611,1.359,1.359,0,0,0-.7-.866L41.857-482v-.811h2.832V-482l-.183.067a1.231,1.231,0,0,0-.683.777,1.164,1.164,0,0,0,.144,1.027,1.245,1.245,0,0,0,2.171-.139,1.384,1.384,0,0,0-.011-1.083,1.315,1.315,0,0,0-.644-.605c-.117-.033-.128-.067-.128-.444v-.411H46.5a7.744,7.744,0,0,1,1.377.067,1.65,1.65,0,0,1,.861.85c.044.155.061,2.221.061,6.781v6.564l-.622.4a6.426,6.426,0,0,0-.694.489.311.311,0,0,0,.244.511,25.217,25.217,0,0,0,2.643-1.638c1.372-.905,2.5-1.638,2.51-1.627a4.593,4.593,0,0,1,.361.583c-.006.039-7.475,4.97-8.164,5.392l-.205.122-.2-.3-.2-.3.833-.55c.866-.566.955-.672.833-.939s-.333-.189-1.388.505l-.966.639h-2.6c-2.532,0-2.61.006-2.716.111a.384.384,0,0,0-.111.222.384.384,0,0,0,.111.222c.106.106.183.111,2.527.111h2.416l-.111.222-.111.222h-2.3c-2.233,0-2.31.006-2.416.111a.384.384,0,0,0-.111.222.384.384,0,0,0,.111.222c.106.105.183.111,2.221.111,1.161,0,2.11.017,2.11.033a3.5,3.5,0,0,1-.194.378c-.228.411-.244.605-.061.728.111.072.322.078,1.622.044l1.5-.044,1.538-1.011c.844-.561,1.549-1.016,1.566-1.016s.028.744.017,1.649c-.017,1.572-.022,1.666-.139,1.877a1.493,1.493,0,0,1-.628.616c-.189.1-.505.106-7.986.122l-7.792.011-.272-.117a1.456,1.456,0,0,1-.744-.777c-.083-.228-.089-1.05-.078-10.574l.017-10.329.155-.261a1.428,1.428,0,0,1,.322-.383c.333-.233.528-.267,1.594-.272h1.011Zm.711,1.172a.554.554,0,0,1-.133.95.551.551,0,0,1-.8-.516A.556.556,0,0,1,34.959-481.233Zm3.515.022a.576.576,0,0,1-.728.883.563.563,0,0,1,.317-1.044A.48.48,0,0,1,38.475-481.211Zm3.427-.022a.518.518,0,0,1,.155.655.565.565,0,0,1-1.088-.222A.556.556,0,0,1,41.9-481.233Zm3.515.022a.582.582,0,0,1-.666.927.57.57,0,0,1,.261-1.088A.475.475,0,0,1,45.417-481.211Zm8.88,10.457a1.587,1.587,0,0,1,.405.333,1.067,1.067,0,0,1-.011,1.261l-.1.128-.539-.822c-.3-.45-.555-.85-.572-.889C53.419-470.9,53.98-470.909,54.3-470.753Zm-.466,1.794a1.123,1.123,0,0,1,.183.328c-.011.011-1.894,1.244-4.187,2.749l-4.165,2.732-.111-.139c-.061-.078-.155-.217-.211-.305l-.094-.161,4.182-2.749c2.294-1.516,4.182-2.755,4.187-2.755A1.943,1.943,0,0,1,53.83-468.96Zm-9.335,5.281a5.923,5.923,0,0,1,.405.661c-.011.006-.372.028-.805.039l-.783.022.222-.444a6.175,6.175,0,0,1,.516-.922C44.062-464.322,44.262-464.034,44.495-463.678Z" transform="translate(0)" fill="#444" stroke="#444" stroke-width="0.35"/>
    <path id="Path_265" data-name="Path 265" d="M53.111-417.889c-.083.083-.111.183-.111.405,0,.333.106.483.344.483.217,0,.322-.161.322-.489s-.128-.511-.333-.511A.384.384,0,0,0,53.111-417.889Z" transform="translate(-21.25 -63.15)" fill="#444" stroke="#444" stroke-width="0.35"/>
    <path id="Path_266" data-name="Path 266" d="M53.194-392.933a.506.506,0,0,0-.15.122c-.022.033-.044.839-.044,1.788,0,1.6.006,1.733.1,1.816a.349.349,0,0,0,.472-.006c.083-.089.094-.3.094-1.822,0-.944-.022-1.744-.044-1.777a.8.8,0,0,0-.3-.189A.974.974,0,0,0,53.194-392.933Z" transform="translate(-21.25 -86.761)" fill="#444" stroke="#444" stroke-width="0.35"/>
    <path id="Path_267" data-name="Path 267" d="M69.3-354.8a2.256,2.256,0,0,0-1.333,3.138,2.574,2.574,0,0,0,1.1,1.077,1.662,1.662,0,0,0,.911.15,1.543,1.543,0,0,0,1.005-.211,2.241,2.241,0,0,0-.339-4.154A2.308,2.308,0,0,0,69.3-354.8Zm1.444.761a1.585,1.585,0,0,1,.205,2.638,1.46,1.46,0,0,1-1.011.328,1.579,1.579,0,0,1-1.011-2.749,1.363,1.363,0,0,1,1.133-.394A1.276,1.276,0,0,1,70.749-354.039Z" transform="translate(-35.173 -122.745)" fill="#444" stroke="#444" stroke-width="0.35"/>
    <path id="Path_268" data-name="Path 268" d="M90.305-328.611a3.391,3.391,0,0,1-.455.389.8.8,0,0,1-.217-.172c-.294-.283-.633-.211-.633.144,0,.144.061.239.355.516.233.222.405.344.489.344a4.672,4.672,0,0,0,1.322-1.255A.466.466,0,0,0,90.81-329,1.934,1.934,0,0,0,90.305-328.611Z" transform="translate(-55.251 -147.207)" fill="#444" stroke="#444" stroke-width="0.35"/>
    <path id="Path_269" data-name="Path 269" d="M172.111-331.889a.384.384,0,0,0-.111.222.384.384,0,0,0,.111.222c.111.111.183.111,4.4.111,4.093,0,4.3-.006,4.387-.1a.349.349,0,0,0-.006-.472c-.094-.089-.478-.094-4.387-.094C172.294-332,172.222-332,172.111-331.889Z" transform="translate(-133.642 -144.374)" fill="#444" stroke="#444" stroke-width="0.35"/>
    <path id="Path_270" data-name="Path 270" d="M172.111-311.889a.384.384,0,0,0-.111.222.384.384,0,0,0,.111.222c.105.106.183.111,2.46.111,2.21,0,2.36-.006,2.444-.1a.349.349,0,0,0-.006-.472c-.094-.083-.344-.094-2.444-.094C172.294-312,172.217-311.994,172.111-311.889Z" transform="translate(-133.642 -163.263)" fill="#444" stroke="#444" stroke-width="0.35"/>
    <path id="Path_271" data-name="Path 271" d="M69.3-254.8a2.256,2.256,0,0,0-1.333,3.138,2.574,2.574,0,0,0,1.1,1.077,1.662,1.662,0,0,0,.911.15,1.543,1.543,0,0,0,1.005-.211,2.241,2.241,0,0,0-.339-4.154A2.309,2.309,0,0,0,69.3-254.8Zm1.444.761a1.585,1.585,0,0,1,.205,2.638,1.46,1.46,0,0,1-1.011.328,1.579,1.579,0,0,1-1.011-2.749,1.363,1.363,0,0,1,1.133-.394A1.276,1.276,0,0,1,70.749-254.039Z" transform="translate(-35.173 -217.192)" fill="#444" stroke="#444" stroke-width="0.35"/>
    <path id="Path_272" data-name="Path 272" d="M90.305-228.611a3.39,3.39,0,0,1-.455.389.8.8,0,0,1-.217-.172c-.294-.283-.633-.211-.633.144,0,.144.061.239.355.516.233.222.405.344.489.344a4.671,4.671,0,0,0,1.322-1.255A.466.466,0,0,0,90.81-229,1.934,1.934,0,0,0,90.305-228.611Z" transform="translate(-55.251 -241.653)" fill="#444" stroke="#444" stroke-width="0.35"/>
    <path id="Path_273" data-name="Path 273" d="M172.111-231.889a.384.384,0,0,0-.111.222.384.384,0,0,0,.111.222c.111.111.183.111,4.4.111,4.093,0,4.3-.006,4.387-.1a.349.349,0,0,0-.006-.472c-.094-.089-.478-.094-4.387-.094C172.294-232,172.222-232,172.111-231.889Z" transform="translate(-133.642 -238.82)" fill="#444" stroke="#444" stroke-width="0.35"/>
    <path id="Path_274" data-name="Path 274" d="M172.111-211.889a.384.384,0,0,0-.111.222.384.384,0,0,0,.111.222c.105.106.183.111,2.46.111,2.21,0,2.36-.006,2.444-.1a.349.349,0,0,0-.006-.472c-.094-.083-.344-.094-2.444-.094C172.294-212,172.217-211.994,172.111-211.889Z" transform="translate(-133.642 -257.709)" fill="#444" stroke="#444" stroke-width="0.35"/>
    <path id="Path_275" data-name="Path 275" d="M69.3-154.8a2.256,2.256,0,0,0-1.333,3.138,2.574,2.574,0,0,0,1.1,1.077,1.662,1.662,0,0,0,.911.15,1.543,1.543,0,0,0,1.005-.211,2.241,2.241,0,0,0-.339-4.154A2.308,2.308,0,0,0,69.3-154.8Zm1.444.761a1.585,1.585,0,0,1,.205,2.638,1.46,1.46,0,0,1-1.011.328,1.579,1.579,0,0,1-1.011-2.749,1.363,1.363,0,0,1,1.133-.394A1.276,1.276,0,0,1,70.749-154.039Z" transform="translate(-35.173 -311.638)" fill="#444" stroke="#444" stroke-width="0.35"/>
    <path id="Path_276" data-name="Path 276" d="M90.305-128.611a3.39,3.39,0,0,1-.455.389.8.8,0,0,1-.217-.172c-.294-.283-.633-.211-.633.144,0,.144.061.239.355.516.233.222.405.344.489.344a4.671,4.671,0,0,0,1.322-1.255A.466.466,0,0,0,90.81-129,1.934,1.934,0,0,0,90.305-128.611Z" transform="translate(-55.251 -336.1)" fill="#444" stroke="#444" stroke-width="0.35"/>
  </g>
</svg>
