<svg xmlns="http://www.w3.org/2000/svg" width="17.979" height="17.979" viewBox="0 0 17.979 17.979">
  <path id="Icon_awesome-link" data-name="Icon awesome-link" d="M11.469,6.51a5.335,5.335,0,0,1,.013,7.535l-.013.013-2.36,2.36A5.338,5.338,0,0,1,1.561,8.87l1.3-1.3a.561.561,0,0,1,.958.372,6.471,6.471,0,0,0,.34,1.851.565.565,0,0,1-.133.583l-.46.46a2.528,2.528,0,1,0,3.553,3.6l2.36-2.359a2.528,2.528,0,0,0,0-3.576,2.63,2.63,0,0,0-.363-.3.563.563,0,0,1-.244-.443,1.4,1.4,0,0,1,.411-1.047l.739-.739a.564.564,0,0,1,.723-.061,5.354,5.354,0,0,1,.721.6Zm4.949-4.949a5.344,5.344,0,0,0-7.548,0L6.51,3.921,6.5,3.934a5.339,5.339,0,0,0,.733,8.139.564.564,0,0,0,.723-.061l.739-.739A1.4,1.4,0,0,0,9.1,10.226a.563.563,0,0,0-.244-.443,2.63,2.63,0,0,1-.363-.3,2.528,2.528,0,0,1,0-3.576l2.36-2.359a2.528,2.528,0,1,1,3.553,3.6l-.46.46a.565.565,0,0,0-.133.583,6.471,6.471,0,0,1,.34,1.851.561.561,0,0,0,.958.372l1.3-1.3a5.343,5.343,0,0,0,0-7.548Z" transform="translate(0 0)" fill="#0c47ec"/>
</svg>
