<svg xmlns="http://www.w3.org/2000/svg" width="22.824" height="15.216" viewBox="0 0 22.824 15.216">
  <path id="Icon_awesome-eye" data-name="Icon awesome-eye" d="M22.687,11.53A12.71,12.71,0,0,0,11.412,4.5,12.711,12.711,0,0,0,.138,11.53a1.282,1.282,0,0,0,0,1.157,12.71,12.71,0,0,0,11.274,7.03,12.711,12.711,0,0,0,11.274-7.03A1.282,1.282,0,0,0,22.687,11.53ZM11.412,17.814a5.706,5.706,0,1,1,5.706-5.706A5.706,5.706,0,0,1,11.412,17.814Zm0-9.51a3.777,3.777,0,0,0-1,.15,1.9,1.9,0,0,1-2.651,2.651,3.8,3.8,0,1,0,3.654-2.8Z" transform="translate(0 -4.5)"/>
</svg>
