<svg xmlns="http://www.w3.org/2000/svg" width="18.097" height="18.097" viewBox="0 0 18.097 18.097">
  <g id="Icon_ionic-ios-add-circle-outline" data-name="Icon ionic-ios-add-circle-outline" transform="translate(-2.875 -2.375)">
    <path id="Path_299" data-name="Path 299" d="M18.608,14.231H15.546V11.169a.658.658,0,0,0-1.315,0v3.062H11.169a.63.63,0,0,0-.658.658.637.637,0,0,0,.658.658h3.062v3.062a.637.637,0,0,0,.658.658.654.654,0,0,0,.658-.658V15.546h3.062a.658.658,0,1,0,0-1.315Z" transform="translate(-2.965 -2.965)" fill="#fff" stroke="#fff" stroke-width="1"/>
    <path id="Path_300" data-name="Path 300" d="M11.923,4.526A7.395,7.395,0,1,1,6.692,6.692a7.349,7.349,0,0,1,5.232-2.166m0-1.151a8.548,8.548,0,1,0,8.548,8.548,8.547,8.547,0,0,0-8.548-8.548Z" transform="translate(0 -0.5)" fill="#fff" stroke="#fff" stroke-width="1"/>
  </g>
</svg>
