<svg xmlns="http://www.w3.org/2000/svg" width="194.196" height="194.697" viewBox="0 0 194.196 194.697">
  <g id="settings_-_alt2" data-name="settings - alt2" transform="translate(-1.008 511.594)">
    <path id="Path_339" data-name="Path 339" d="M289.535-511.215c-14.968,2.475-27.422,11.273-34.2,24.184a48.615,48.615,0,0,0-4.646,13.52,52.078,52.078,0,0,0,1.333,21.594l.762,2.438-7.16,7.16L238.5-435.2l8.417,8.417,8.417,8.417,2.552-.8a15.947,15.947,0,0,1,15.234,2.932l1.1.876,3.313-3.275,3.313-3.313,2.437.762a49.4,49.4,0,0,0,21.4,1.066,46.422,46.422,0,0,0,36.486-35.039,56.817,56.817,0,0,0,.8-16.224c-.343-2.438-.571-3.009-1.6-3.923a4.309,4.309,0,0,0-4.684-.609,97.083,97.083,0,0,0-7.16,6.665c-5.484,5.408-6.7,6.4-9.141,7.541a20.4,20.4,0,0,1-28.526-13.063,26.628,26.628,0,0,1,.19-10.55c1.257-4.456,2.7-6.436,9.521-13.444,6.322-6.474,6.475-6.627,6.475-8.226,0-1.866-.838-3.047-2.78-3.885C302.484-511.634,293.305-511.862,289.535-511.215Z" transform="translate(-147.042 0)" fill="#8967b3"/>
    <path id="Path_340" data-name="Path 340" d="M16.308-480.04c-2.057.724-13.33,11.883-14.4,14.244a5.712,5.712,0,0,0,.419,5.6c1.942,3.275,19.881,27.079,20.909,27.65a8.037,8.037,0,0,0,5.522.343,15.006,15.006,0,0,0,2.971-2.285l2.057-1.9L65.1-405.126,96.4-373.819l-2.437,2.59c-1.714,1.79-2.59,3.047-2.856,4.189-.952,3.5-2.437,1.828,31.154,35.42,32.3,32.259,31.8,31.839,36.6,33.287a20.872,20.872,0,0,0,14.511-1.257,25.182,25.182,0,0,0,8.455-8.3,20.969,20.969,0,0,0,1.6-14.054c-1.409-5.408-.609-4.532-33.058-37.1-20.338-20.376-30.621-30.431-31.687-30.926-2.895-1.409-5.065-.8-8.455,2.438l-2.209,2.095L76.711-416.742,45.367-448.086l1.219-1.1c4.151-3.885,4.532-8.417.914-11.311-2.285-1.828-25.555-18.852-26.279-19.233A6.64,6.64,0,0,0,16.308-480.04Z" transform="translate(-0.221 -19.331)"/>
    <path id="Path_341" data-name="Path 341" d="M35.016-212.455c-26.927,27-30.659,30.849-31.687,32.944-4.8,9.636-1.98,20.3,6.855,26.013a18.44,18.44,0,0,0,10.245,2.818,18.1,18.1,0,0,0,9.331-2.171c1.98-.952,5.789-4.57,28.907-27.688l26.622-26.584-.952-1.181a17.938,17.938,0,0,1-3.428-7.617,16.739,16.739,0,0,1,1.066-8.874l.609-1.181-8.531-8.531L65.56-243Z" transform="translate(0 -166.298)" fill="#8967b3"/>
  </g>
</svg>
