<svg xmlns="http://www.w3.org/2000/svg" width="25.138" height="25.19" viewBox="0 0 25.138 25.19">
  <g id="tag" transform="translate(-32.207 480.343)">
    <path id="Path_296" data-name="Path 296" d="M56.1-479.854c-.087.054-.713.653-1.388,1.334l-1.22,1.225-.55-.534a2.333,2.333,0,0,0-1.481-.86c-.4-.033-5.276.637-5.821.806a5.2,5.2,0,0,0-1.628.882c-.24.191-1.748,1.568-3.349,3.065s-3.964,3.692-5.243,4.884-2.4,2.271-2.483,2.4a2.055,2.055,0,0,0-.354,1.318,1.508,1.508,0,0,0,.174.926c.169.359.387.588,4.247,4.449,3.572,3.572,4.105,4.084,4.378,4.209a2.325,2.325,0,0,0,1.372.2,2.192,2.192,0,0,0,1.448-.822,3.24,3.24,0,0,1,.523-.49c.033,0,.708.245,1.508.544,1.633.61,1.917.67,2.477.523a2.962,2.962,0,0,0,.566-.2,2.817,2.817,0,0,0,.931-.893c.06-.12.79-2.26,1.623-4.753l1.508-4.53.31-.343a5.291,5.291,0,0,0,1.214-1.944,16.639,16.639,0,0,0,.523-3.076c.4-2.9.387-2.782.278-3.164a2.5,2.5,0,0,0-.839-1.236l-.517-.534,1.329-1.329,1.334-1.334v-.25a.422.422,0,0,0-.18-.408A.537.537,0,0,0,56.1-479.854Zm-4.6,2.347a2.164,2.164,0,0,1,.681.544l.49.49-.664.664-.659.659-.25-.071a2.067,2.067,0,0,0-1.334.136,1.742,1.742,0,0,0-.741,2.276,1.776,1.776,0,0,0,1.307.969,1.793,1.793,0,0,0,1.906-1.149,2.046,2.046,0,0,0,0-1.116l-.076-.218.637-.642a5.811,5.811,0,0,1,.7-.637,3.9,3.9,0,0,1,.555.512l.5.506v.3c0,.392-.621,4.879-.741,5.331a3.029,3.029,0,0,1-.675,1.258c-.147.174-2.456,2.663-5.124,5.527-3.185,3.425-4.928,5.254-5.075,5.331a1.327,1.327,0,0,1-1.007.049c-.082-.044-1.938-1.879-4.133-4.073-3.752-3.757-3.991-4.007-4.04-4.236a1.368,1.368,0,0,1,.1-.828c.065-.136,10.313-9.73,10.966-10.269a3.149,3.149,0,0,1,1.339-.632c.316-.065,2.717-.408,4.928-.7.093-.011.174-.027.191-.027A.735.735,0,0,1,51.5-477.507Zm-.534,3.534a.426.426,0,0,1,.18.414.426.426,0,0,1-.18.414.545.545,0,0,1-.937-.387c0-.278.065-.408.261-.512A.549.549,0,0,1,50.964-473.973Zm-.61,13.111c-.577,1.731-1.094,3.234-1.143,3.338a1.137,1.137,0,0,1-.975.615,5.51,5.51,0,0,1-1.459-.446l-1.209-.457.147-.174c.338-.4,5.641-6.066,5.663-6.044S50.926-462.593,50.355-460.862Z" transform="translate(0 0)" fill="#444" stroke="#444" stroke-width="0.75"/>
    <path id="Path_297" data-name="Path 297" d="M171.349-255.806a.549.549,0,0,0-.348.55c0,.212.033.25,1.922,2.134,1.83,1.835,1.928,1.922,2.118,1.922a.612.612,0,0,0,.583-.757c-.076-.2-3.632-3.757-3.844-3.85A.368.368,0,0,0,171.349-255.806Z" transform="translate(-130.882 -211.879)" fill="#444" stroke="#444" stroke-width="0.75"/>
    <path id="Path_298" data-name="Path 298" d="M139.4-223.89a.61.61,0,0,0-.4.577c0,.223.011.24,1.922,2.145,1.895,1.9,1.922,1.922,2.14,1.922a.591.591,0,0,0,.594-.691,19.047,19.047,0,0,0-1.868-2c-1.617-1.623-2.058-2.015-2.227-1.987C139.539-223.917,139.463-223.9,139.4-223.89Z" transform="translate(-100.624 -242.09)" fill="#444" stroke="#444" stroke-width="0.75"/>
  </g>
</svg>
