<svg xmlns="http://www.w3.org/2000/svg" width="34.8" height="24.81" viewBox="0 0 34.8 24.81">
  <path id="Icon_awesome-users" data-name="Icon awesome-users" d="M4.995,12.24a3.33,3.33,0,1,0-3.33-3.33A3.333,3.333,0,0,0,4.995,12.24Zm23.31,0a3.33,3.33,0,1,0-3.33-3.33A3.333,3.333,0,0,0,28.3,12.24ZM29.97,13.9H26.64a3.32,3.32,0,0,0-2.347.968A7.611,7.611,0,0,1,28.2,20.565h3.434A1.663,1.663,0,0,0,33.3,18.9V17.235A3.333,3.333,0,0,0,29.97,13.9Zm-13.32,0a5.827,5.827,0,1,0-5.827-5.827A5.825,5.825,0,0,0,16.65,13.9Zm4,1.665h-.432a8.046,8.046,0,0,1-7.128,0h-.432A6,6,0,0,0,6.66,21.564v1.5a2.5,2.5,0,0,0,2.5,2.5H24.142a2.5,2.5,0,0,0,2.5-2.5v-1.5A6,6,0,0,0,20.646,15.57Zm-11.639-.7A3.32,3.32,0,0,0,6.66,13.9H3.33A3.333,3.333,0,0,0,0,17.235V18.9a1.663,1.663,0,0,0,1.665,1.665H5.094A7.63,7.63,0,0,1,9.007,14.873Z" transform="translate(0.75 -1.5)" fill="none" stroke="#444" stroke-width="1.5"/>
</svg>
